<svg width="48" height="55" viewBox="0 0 48 55" fill="none" xmlns="http://www.w3.org/2000/svg">
<g clip-path="url(#clip0_11_188)">
<path d="M1.09094 54.5455H48V37.0909H1.09094V54.5455Z" fill="#35363A"/>
<path fill-rule="evenodd" clip-rule="evenodd" d="M12.5127 27.1091H9.40364V15.4253H10.1127C11.8228 15.2952 13.5386 15.5874 15.1091 16.2763C15.5886 16.6356 15.9843 17.0949 16.2687 17.6223C16.5532 18.1498 16.7195 18.7328 16.7564 19.3309C16.8436 19.8763 16.9309 20.64 17.0291 21.6545C17.1153 23.6256 17.6408 25.5525 18.5673 27.2944C19.0759 28.0165 19.7589 28.5982 20.5527 28.9854C21.3962 29.3626 22.3126 29.5489 23.2364 29.5308C24.5018 29.5308 26.4436 29.2363 27.0873 29.2363V27.0763H25.2764C24.0109 27.0763 23.5855 24.4471 23.4436 22.8871C23.3491 22.1017 23.3018 21.4799 23.3018 21.0217C23.1978 19.021 22.3858 17.1224 21.0109 15.6653C20.3473 15.0717 19.5774 14.609 18.7418 14.3017C19.8031 13.9764 20.7971 13.4628 21.6764 12.7854C22.4533 12.203 23.0781 11.4418 23.4979 10.5662C23.9176 9.6907 24.1198 8.72668 24.0873 7.75627C24.1311 6.66642 23.8807 5.58497 23.3624 4.62524C22.8442 3.6655 22.0771 2.86292 21.1418 2.30179C19.2982 1.14543 16.5927 0.556366 13.1236 0.556366H0.032727V2.67273H3.36V27.0872H0V29.2035H12.5127V27.1091ZM11.6509 2.69451H9.40364V13.2654H10.1127C12.8836 13.2654 14.9345 12.8181 16.2218 11.9454C16.8291 11.5164 17.3143 10.9368 17.6299 10.2636C17.9455 9.59033 18.0805 8.84664 18.0218 8.10544C18.0959 7.35321 18.0077 6.59378 17.763 5.87861C17.5183 5.16344 17.123 4.5092 16.6036 3.96C15.6436 3.12 13.9745 2.69451 11.6509 2.69451Z" fill="#35363A"/>
<path d="M29.3891 28.5055C29.3904 28.2351 29.4578 27.9692 29.5854 27.7309C29.64 27.6655 29.6727 27.6327 29.64 27.6218C30.604 27.899 31.548 28.2416 32.4654 28.6473C34.2 29.3468 36.0498 29.7168 37.92 29.7382C39.2167 29.7943 40.5115 29.5896 41.7277 29.1361C42.9438 28.6826 44.0566 27.9896 45 27.0982C45.9044 26.1796 46.6104 25.0848 47.0739 23.8818C47.5374 22.6789 47.7487 21.3935 47.6945 20.1055C47.8076 18.0862 47.1219 16.1034 45.7854 14.5855C44.0825 13.0683 41.9751 12.079 39.72 11.7382C38.8145 11.5418 37.4836 11.3236 35.7927 11.0727C34.7525 10.9861 33.7307 10.7472 32.76 10.3636C32.1338 10.0383 31.612 9.54298 31.2545 8.93455C30.9185 8.25781 30.7573 7.50775 30.7854 6.75273C30.7443 6.11408 30.8442 5.47422 31.078 4.87848C31.3117 4.28274 31.6737 3.7457 32.1381 3.30545C33.2914 2.41402 34.7311 1.97553 36.1854 2.07273C37.1077 2.04797 38.0253 2.21123 38.8824 2.55257C39.7395 2.89391 40.5181 3.40619 41.1709 4.05818C42.5944 5.59936 43.4588 7.5741 43.6254 9.66545L43.7236 10.3309H45.7854V0.785453H43.6036V1.77818C43.6165 1.94848 43.5703 2.11802 43.4727 2.25818C43.4515 2.29142 43.4212 2.31791 43.3854 2.33454L41.2036 1.24363C39.6386 0.444632 37.9098 0.0189642 36.1527 -3.03239e-06C34.9752 -0.0552735 33.7987 0.126782 32.693 0.535331C31.5873 0.943879 30.575 1.57058 29.7163 2.37818C28.8988 3.22681 28.2632 4.23352 27.8487 5.33656C27.4341 6.43959 27.2492 7.61569 27.3054 8.79272C27.2442 9.80095 27.3864 10.8112 27.7238 11.7633C28.0611 12.7154 28.5867 13.5898 29.2691 14.3345C30.5563 15.6218 32.6182 16.5164 35.6291 17.0618C35.7273 17.0618 35.8909 17.0618 36.1527 17.1491C40.3527 17.88 41.9454 18.6109 42.5454 19.1018C43.0396 19.4801 43.4423 19.9648 43.7236 20.52C43.9867 21.0523 44.1212 21.639 44.1163 22.2327C44.1329 22.9613 43.9845 23.6841 43.6823 24.3472C43.38 25.0103 42.9317 25.5965 42.3709 26.0618C41.0945 27.1499 39.4538 27.715 37.7781 27.6436C36.7056 27.6835 35.637 27.494 34.6436 27.0876C33.6503 26.6812 32.7552 26.0674 32.0181 25.2873C30.4271 23.4699 29.5171 21.1561 29.4436 18.7418L29.3891 18.0218H27.2727V29.2691H29.3782L29.3891 28.5055Z" fill="#35363A"/>
</g>
<defs>
<clipPath id="clip0_11_188">
<rect width="48" height="54.5455" fill="white"/>
</clipPath>
</defs>
</svg>
