<?xml version="1.0" standalone="no"?>
<!DOCTYPE svg PUBLIC "-//W3C//DTD SVG 20010904//EN"
 "http://www.w3.org/TR/2001/REC-SVG-20010904/DTD/svg10.dtd">
<svg version="1.0" xmlns="http://www.w3.org/2000/svg"
 width="880.000000pt" height="880.000000pt" viewBox="0 0 880.000000 880.000000"
 preserveAspectRatio="xMidYMid meet">
<metadata>
Created by potrace 1.14, written by Peter Selinger 2001-2017
</metadata>
<g transform="translate(0.000000,880.000000) scale(0.100000,-0.100000)"
fill="#000000" stroke="none">
<path d="M6087 8789 c-385 -56 -724 -261 -920 -556 -101 -152 -166 -301 -209
-483 -26 -108 -37 -476 -18 -602 43 -296 201 -575 420 -741 115 -87 320 -185
503 -241 97 -30 310 -81 377 -91 59 -9 279 -51 400 -76 263 -55 508 -131 635
-197 101 -52 228 -181 278 -283 136 -277 51 -656 -196 -872 -126 -111 -276
-191 -444 -238 -98 -27 -396 -38 -525 -19 -343 50 -635 236 -831 531 -165 248
-253 497 -278 789 -6 69 -13 144 -15 168 l-5 42 -167 -2 -167 -3 -3 -897 -2
-898 169 0 169 0 4 93 c4 79 18 134 43 164 5 7 218 -66 355 -122 262 -106 438
-157 670 -191 162 -25 500 -25 627 -1 631 120 1069 540 1204 1156 30 136 38
494 15 631 -47 272 -187 535 -358 673 -174 140 -384 254 -594 323 -169 56
-669 150 -1004 189 -155 19 -371 80 -457 131 -108 63 -189 162 -235 286 -24
66 -32 107 -38 202 -17 264 38 433 190 587 63 63 92 84 180 127 142 69 241 92
415 99 223 9 393 -22 561 -101 170 -80 295 -183 408 -333 164 -218 256 -455
293 -750 l16 -133 169 0 168 0 0 760 0 760 -175 0 -175 0 0 -85 c0 -85 -18
-155 -39 -155 -6 0 -113 51 -239 114 -315 158 -498 218 -744 245 -112 13 -346
12 -431 0z"/>
<path d="M565 8698 c-3 -8 -4 -83 -3 -168 l3 -155 268 -3 267 -2 0 -1950 0
-1950 -270 0 -270 0 0 -170 0 -170 1000 0 1000 0 0 165 0 165 -247 2 -248 3
-3 931 -2 931 134 7 c231 11 453 -19 660 -91 120 -41 163 -69 226 -144 62 -74
104 -149 129 -229 25 -82 58 -321 81 -605 26 -317 150 -714 271 -872 116 -150
300 -259 509 -299 97 -19 310 -19 510 1 85 9 190 18 233 22 l77 6 0 173 0 174
-160 0 c-179 0 -195 4 -248 65 -84 95 -135 276 -172 610 -11 99 -20 209 -20
244 0 88 -26 255 -56 359 -52 182 -178 404 -299 528 -68 69 -200 159 -301 205
l-69 31 86 33 c404 156 663 428 740 778 18 79 20 117 16 272 -4 159 -7 190
-31 270 -125 416 -455 669 -1023 784 -266 54 -257 54 -1566 58 -1011 3 -1218
2 -1222 -9z m2195 -352 c178 -29 321 -80 415 -147 96 -69 204 -246 247 -404
18 -68 21 -108 21 -260 1 -207 -10 -263 -73 -390 -151 -307 -480 -447 -1087
-462 l-223 -6 0 840 c0 462 3 843 8 847 13 14 589 -1 692 -18z"/>
<path d="M735 2858 c-3 -7 -4 -636 -3 -1398 l3 -1385 3752 -3 3753 -2 0 1400
0 1400 -3750 0 c-2991 0 -3752 -3 -3755 -12z"/>
</g>
</svg>
